<svg width="255" height="61" viewBox="0 0 255 61" fill="none" xmlns="http://www.w3.org/2000/svg">
<g filter="url(#filter0_di_82_5)">
<path d="M3.0769 57C2.35897 57 2 56.6437 2 55.931V1.06902C2 0.356339 2.35897 0 3.0769 0H29.3964C30.143 0 30.7174 0.185296 31.1194 0.555889L41.0269 10.3053C41.3428 10.5904 41.5438 10.8327 41.63 11.0323C41.7161 11.2318 41.7592 11.5596 41.7592 12.0158V23.7322C41.7592 24.1028 41.5151 24.5304 41.0269 25.015L35.0824 30.916L34.1347 31.7712L36.8054 35.7479L42.1899 46.0105C42.3335 46.2671 42.4197 46.5236 42.4484 46.7802C42.5058 47.0083 42.5345 47.3076 42.5345 47.6782V55.931C42.5345 56.6437 42.1756 57 41.4576 57H27.8456C27.2138 57 26.7831 56.7149 26.5533 56.1448L20.6519 41.093H19.9196V55.931C19.9196 56.6437 19.5607 57 18.8427 57H3.0769ZM21.8581 23.2191C23.0355 23.2191 23.9831 22.8485 24.7011 22.1073C25.4477 21.3661 25.821 20.4254 25.821 19.2851C25.821 18.1448 25.4477 17.2183 24.7011 16.5056C23.9831 15.7644 23.0355 15.3938 21.8581 15.3938C20.7094 15.3938 19.7617 15.7644 19.015 16.5056C18.2971 17.2183 17.9381 18.1448 17.9381 19.2851C17.9381 20.4254 18.2971 21.3661 19.015 22.1073C19.7617 22.8485 20.7094 23.2191 21.8581 23.2191Z" fill="#93FEA7"/>
<path d="M47.2467 57C46.5287 57 46.1698 56.6437 46.1698 55.931V1.06902C46.1698 0.356339 46.5287 0 47.2467 0H77.2276C77.9455 0 78.3045 0.356339 78.3045 1.06902V16.0353C78.3045 16.7479 77.9455 17.1043 77.2276 17.1043H64.0894V20.6534H77.2276C77.9455 20.6534 78.3045 21.0098 78.3045 21.7224V35.2776C78.3045 35.9902 77.9455 36.3466 77.2276 36.3466H64.0894V39.8957H77.2276C77.9455 39.8957 78.3045 40.2521 78.3045 40.9647V55.931C78.3045 56.6437 77.9455 57 77.2276 57H47.2467Z" fill="#93FEA7"/>
<path d="M83.0031 57C82.2852 57 81.9262 56.6437 81.9262 55.931V1.06902C81.9262 0.356339 82.2852 0 83.0031 0H112.984C113.702 0 114.061 0.356339 114.061 1.06902V16.0353C114.061 16.7479 113.702 17.1043 112.984 17.1043H99.8459V20.6534H112.984C113.702 20.6534 114.061 21.0098 114.061 21.7224V35.2776C114.061 35.9902 113.702 36.3466 112.984 36.3466H99.8459V39.8957H112.984C113.702 39.8957 114.061 40.2521 114.061 40.9647V55.931C114.061 56.6437 113.702 57 112.984 57H83.0031Z" fill="#93FEA7"/>
<path d="M118.76 57C118.042 57 117.683 56.6437 117.683 55.931V1.06902C117.683 0.356339 118.042 0 118.76 0H134.525C135.243 0 135.602 0.356339 135.602 1.06902V39.8957H142.882C143.6 39.8957 143.959 40.2521 143.959 40.9647V55.931C143.959 56.6437 143.6 57 142.882 57H118.76Z" fill="#93FEA7"/>
<path d="M148.627 57C147.909 57 147.55 56.6437 147.55 55.931V1.06902C147.55 0.356339 147.909 0 148.627 0H164.393C165.111 0 165.469 0.356339 165.469 1.06902V55.931C165.469 56.6437 165.111 57 164.393 57H148.627Z" fill="#93FEA7"/>
<path d="M170.165 57C169.447 57 169.088 56.6437 169.088 55.931V1.06902C169.088 0.356339 169.447 0 170.165 0H197.518C198.179 0 198.753 0.228057 199.241 0.684172L207.856 9.23631C208.316 9.72093 208.546 10.2911 208.546 10.9467V55.931C208.546 56.6437 208.187 57 207.469 57H191.703C190.985 57 190.626 56.6437 190.626 55.931V17.1043H187.008V55.931C187.008 56.6437 186.649 57 185.931 57H170.165Z" fill="#93FEA7"/>
<path d="M213.241 57C212.523 57 212.164 56.6437 212.164 55.931V1.06902C212.164 0.356339 212.523 0 213.241 0H229.007C229.725 0 230.084 0.356339 230.084 1.06902V17.7884H230.73L233.487 7.09827L235.123 0.555889C235.181 0.299324 235.353 0.142534 235.64 0.0855203C235.956 0.0285068 236.243 0 236.502 0H251.062C251.779 0 252.138 0.356339 252.138 1.06902V12.1013C252.138 12.3578 252.081 12.5859 251.966 12.7854C251.851 12.985 251.736 13.2131 251.622 13.4696L245.376 27.3668L244.686 28.5641L245.376 29.9325L252.655 44.2573C252.799 44.4854 252.885 44.7277 252.914 44.9842C252.971 45.2123 253 45.5116 253 45.8822V55.931C253 56.6437 252.641 57 251.923 57H237.191C236.961 57 236.703 56.9572 236.416 56.8717C236.157 56.7862 235.985 56.6152 235.899 56.3586L233.271 48.4479L230.73 40.9647H230.084V55.931C230.084 56.6437 229.725 57 229.007 57H213.241Z" fill="#93FEA7"/>
</g>
<defs>
<filter id="filter0_di_82_5" x="0" y="0" width="255" height="61" filterUnits="userSpaceOnUse" color-interpolation-filters="sRGB">
<feFlood flood-opacity="0" result="BackgroundImageFix"/>
<feColorMatrix in="SourceAlpha" type="matrix" values="0 0 0 0 0 0 0 0 0 0 0 0 0 0 0 0 0 0 127 0" result="hardAlpha"/>
<feOffset dy="2"/>
<feGaussianBlur stdDeviation="1"/>
<feComposite in2="hardAlpha" operator="out"/>
<feColorMatrix type="matrix" values="0 0 0 0 0 0 0 0 0 0 0 0 0 0 0 0 0 0 0.25 0"/>
<feBlend mode="normal" in2="BackgroundImageFix" result="effect1_dropShadow_82_5"/>
<feBlend mode="normal" in="SourceGraphic" in2="effect1_dropShadow_82_5" result="shape"/>
<feColorMatrix in="SourceAlpha" type="matrix" values="0 0 0 0 0 0 0 0 0 0 0 0 0 0 0 0 0 0 127 0" result="hardAlpha"/>
<feOffset dy="2"/>
<feGaussianBlur stdDeviation="1"/>
<feComposite in2="hardAlpha" operator="arithmetic" k2="-1" k3="1"/>
<feColorMatrix type="matrix" values="0 0 0 0 1 0 0 0 0 1 0 0 0 0 1 0 0 0 0.25 0"/>
<feBlend mode="normal" in2="shape" result="effect2_innerShadow_82_5"/>
</filter>
</defs>
</svg>
